<?xml version="1.0" encoding="utf-8"?>
<!-- Generator: Adobe Illustrator 25.0.0, SVG Export Plug-In . SVG Version: 6.00 Build 0)  -->
<svg version="1.1" xmlns="http://www.w3.org/2000/svg" xmlns:xlink="http://www.w3.org/1999/xlink" x="0px" y="0px"
	 viewBox="0 0 300 300" style="enable-background:new 0 0 300 300;" xml:space="preserve">
<style type="text/css">
	.st0{fill:#454B4E;}
	.st1{fill:#EFD7A5;}
	.st2{fill:#0E7FDB;}
</style>
<g id="Layer_3">
</g>
<g id="Layer_3_copy_3">
	<path class="st0" d="M254.35,29h-83.69C159.25,29,150,38.25,150,49.65V77.6c-2.68-8.3-10.46-14.32-19.65-14.32H66.65
		C55.25,63.28,46,72.53,46,83.93v133.41C46,228.75,55.25,238,66.65,238h63.69c10.06,0,18.43-7.2,20.27-16.73
		c2.21,9.02,10.33,15.73,20.04,15.73h83.69c11.41,0,20.65-9.25,20.65-20.65V49.65C275,38.25,265.75,29,254.35,29z"/>
</g>
<g id="Layer_1">
	<g>
		<path class="st1" d="M182.25,191h-63.5C104.53,191,93,179.47,93,165.25v-63.5C93,87.53,104.53,76,118.75,76h63.5
			C196.47,76,208,87.53,208,101.75v63.5C208,179.47,196.47,191,182.25,191z"/>
	</g>
	<rect x="142" y="191" class="st1" width="18" height="78"/>
</g>
<g id="Layer_2">
	<path class="st2" d="M228,300H72v-73.42c0-9.71,7.87-17.58,17.58-17.58h120.85c9.71,0,17.58,7.87,17.58,17.58V300z"/>
</g>
<g id="Layer_3_copy">
</g>
<g id="Layer_3_copy_2">
	<path class="st0" d="M254.35,29h-83.69C159.25,29,150,38.25,150,49.65v9.82c-2.68-8.3-10.46-14.32-19.65-14.32H66.65
		C55.25,45.16,46,54.41,46,65.81v43.53C46,120.75,55.25,130,66.65,130h63.69c9.87,0,18.11-6.93,20.15-16.18
		c2.05,9.25,10.29,16.18,20.15,16.18h83.69c11.41,0,20.65-9.25,20.65-20.65V49.65C275,38.25,265.75,29,254.35,29z"/>
</g>
</svg>
